PathFileType	4	(X/Y/Z)	C:/Users/opensim2020/Desktop/walking_exp_matlab/subject02_walking13_straight_04.trc																																																																																																																									
DataRate	CameraRate	NumFrames	NumMarkers	Units	OrigDataRate	OrigDataStartFrame	OrigNumFrames																																																																																																																					
100	100	7	41	mm	100	1736	118																																																																																																																					
Frame#	Time	LFHD			RFHD			LBHD			RBHD			C7			T10			CLAV			STRN			RBAK			LSHO			LUPA			LELB			LFRM			LWRA			LWRB			LFIN			RSHO			RUPA			RELB			RFRM			RWRA			RWRB			RFIN			LASI			RASI			LPSI			RPSI			LTHI			LKNE			LTIB			LANK			LHEE			LTOE			RTHI			RKNE			RTIB			RANK			RHEE			RTOE			*39			*40		
		X1	Y1	Z1	X2	Y2	Z2	X3	Y3	Z3	X4	Y4	Z4	X5	Y5	Z5	X6	Y6	Z6	X7	Y7	Z7	X8	Y8	Z8	X9	Y9	Z9	X10	Y10	Z10	X11	Y11	Z11	X12	Y12	Z12	X13	Y13	Z13	X14	Y14	Z14	X15	Y15	Z15	X16	Y16	Z16	X17	Y17	Z17	X18	Y18	Z18	X19	Y19	Z19	X20	Y20	Z20	X21	Y21	Z21	X22	Y22	Z22	X23	Y23	Z23	X24	Y24	Z24	X25	Y25	Z25	X26	Y26	Z26	X27	Y27	Z27	X28	Y28	Z28	X29	Y29	Z29	X30	Y30	Z30	X31	Y31	Z31	X32	Y32	Z32	X33	Y33	Z33	X34	Y34	Z34	X35	Y35	Z35	X36	Y36	Z36	X37	Y37	Z37	X38	Y38	Z38	X39	Y39	Z39	X40	Y40	Z40	X41	Y41	Z41
																																																																																																																												
1	0	-824.75476	1711.73315	-1364.64807	-835.935	1682.70203	-1223.93896	-961.06067	1650.55481	-1385.77576	-983.95129	1621.95618	-1247.21301	-1030.80371	1502.64832	-1306.91956	-1081.42432	1225.62891	-1294.83728	-893.51691	1433.94141	-1342.24243	-840.29199	1262.75488	-1337.39722	-1077.28857	1326.8772	-1232.27393	-1000.44348	1473.23914	-1492.31787	-1088.30261	1288.97913	-1550.29053	-1132.76941	1154.36194	-1546.35645	-1168.64697	1024.75061	-1548.97791	-1152.69495	888.60938	-1506.63989	-1196.36084	903.43048	-1540.64221	-1205.1748	835.35431	-1526.36719	-928.33459	1473.60376	-1138.26624	-915.08606	1289.69836	-1041.3302	-860.92267	1150.35291	-1016.63934	-768.91418	1069.49011	-1025.94434	-664.72589	1003.02716	-1077.86292	-688.3855	968.6651	-1039.302	-620.32513	948.98627	-1053.98755	-868.2973	961.38379	-1451.46191	-867.35211	935.04034	-1195.70032	-1074.79175	1016.45044	-1363.34888	-1076.67407	1011.95642	-1249.82312	-887.22009	673.02661	-1544.44543	-828.92328	482.21442	-1526.49414	-802.0166	292.71136	-1547.45496	-696.4151	90.06807	-1547.82019	-712.22998	46.5159	-1496.68652	-541.15411	112.71514	-1564.64685	-1030.26147	646.2959	-1148.00061	-1105.33899	450.23569	-1198.94019	-1211.77319	293.9747	-1191.32996	-1305.14868	122.81155	-1229.45117	-1364.7146	83.27216	-1278.19739	-1170.87744	41.48851	-1249.89355	-925.42419	1779.97742	-1275.00623	-2845.91675	1034.38037	3357.2998
2	0.01	-811.91034	1710.04797	-1369.01147	-823.65619	1680.99097	-1228.33545	-948.0567	1648.73181	-1390.60742	-971.50775	1620.13147	-1252.146	-1017.92639	1500.66748	-1312.30823	-1067.76184	1223.39807	-1300.26892	-880.17352	1432.27478	-1346.80457	-826.33008	1261.22253	-1341.24561	-1064.39539	1324.63794	-1237.88831	-986.15979	1471.10291	-1497.61072	-1074.80823	1287.06897	-1555.14392	-1119.98767	1152.77661	-1549.22913	-1159.21582	1024.49683	-1551.14209	-1148.07312	888.34387	-1507.33862	-1190.64709	903.98224	-1542.1012	-1202.3999	836.40576	-1526.30273	-916.92383	1471.99133	-1143.03857	-903.22253	1288.18323	-1045.88342	-848.66937	1149.32983	-1020.25641	-755.43402	1070.20667	-1029.80103	-649.51111	1005.80103	-1080.9906	-672.92517	970.80621	-1043.1261	-604.26648	952.83221	-1057.25159	-851.96332	960.04681	-1455.38452	-853.05255	933.30328	-1199.56921	-1059.63367	1014.26715	-1369.23486	-1062.1228	1009.88245	-1255.63	-866.18341	672.66138	-1549.05347	-810.18976	481.21976	-1530.07861	-785.03418	291.15836	-1550.92493	-682.8811	86.75724	-1549.39124	-700.25897	43.55721	-1498.92737	-527.95367	108.14622	-1564.93823	-1017.62286	645.45074	-1150.85522	-1094.57764	450.00467	-1200.60461	-1204.68945	296.47168	-1192.40796	-1302.12085	127.32034	-1228.9043	-1362.45093	89.43018	-1277.69421	-1170.32141	41.5527	-1249.55774	-912.93781	1778.08618	-1279.67114	-2845.27515	1034.2019	3360.32739
3	0.02	-799.12012	1708.48669	-1373.41809	-811.2995	1679.3678	-1232.79089	-935.13739	1647.13599	-1395.67188	-959.05365	1618.38416	-1257.15149	-1004.98065	1498.7937	-1317.74255	-1053.89709	1221.18579	-1305.56873	-866.78284	1430.80396	-1351.39734	-812.34845	1260.0249	-1345.51245	-1051.43445	1322.52869	-1243.52368	-971.80853	1469.21802	-1502.89856	-1060.85193	1285.1084	-1559.95911	-1106.70825	1151.32654	-1552.44775	-1148.85779	1024.33398	-1553.74219	-1142.328	888.12909	-1508.37634	-1183.71289	904.69922	-1544.2467	-1198.45544	837.73938	-1526.92114	-905.03052	1470.56018	-1147.64197	-892.2854	1286.94482	-1050.74036	-836.72327	1148.48499	-1024.14685	-742.13269	1070.58557	-1033.23816	-635.03583	1008.56952	-1084.20996	-658.26501	972.698	-1046.79602	-589.75214	955.88446	-1060.2135	-835.29126	959.1521	-1459.55237	-838.01776	931.99268	-1203.73474	-1044.49146	1012.2182	-1374.69861	-1047.0907	1007.89142	-1261.5	-844.35962	672.69788	-1553.62183	-791.49103	480.24399	-1533.55408	-769.46973	289.53342	-1554.2113	-672.72571	83.47713	-1551.20667	-691.14606	40.02063	-1500.86157	-517.38354	101.96674	-1564.87561	-1004.27356	644.74426	-1153.84033	-1082.58618	449.96149	-1202.16541	-1197.02344	299.37662	-1193.40735	-1298.62109	132.50633	-1228.45081	-1359.54919	96.3252	-1277.23999	-1169.95459	41.33189	-1249.16248	-900.48126	1776.40942	-1284.48962	-2845.92407	1034.38269	3357.22607
4	0.03	-786.30182	1706.91687	-1377.84778	-799.00977	1677.77966	-1237.23816	-922.12659	1645.43286	-1400.4198	-946.6217	1616.71606	-1262.18054	-991.9856	1496.94214	-1323.13391	-1039.79724	1218.91614	-1310.89844	-853.31067	1429.46606	-1356.12183	-798.1908	1259.14099	-1350.15466	-1038.35376	1320.47241	-1248.99146	-957.33167	1467.56262	-1507.98242	-1046.50171	1283.02417	-1564.63745	-1092.94409	1149.93958	-1555.94763	-1137.68201	1024.32275	-1557.03882	-1135.45801	888.16028	-1510.24011	-1175.5874	905.45203	-1547.40527	-1193.29907	839.22083	-1528.27209	-893.28143	1469.27869	-1152.54541	-881.37079	1285.62402	-1055.42456	-825.27313	1147.74768	-1027.99597	-729.84174	1071.1311	-1037.04492	-621.41095	1010.76874	-1087.08557	-644.39465	974.24304	-1050.45483	-575.4624	958.98285	-1062.97522	-818.29053	958.72205	-1464.06677	-822.64911	930.45996	-1207.80469	-1028.28418	1010.12915	-1380.76257	-1031.49597	1005.84991	-1267.42786	-822.21362	673.0506	-1558.11804	-772.85211	479.04715	-1536.9895	-755.22076	287.52762	-1557.27563	-664.08691	79.14238	-1552.44409	-684.5816	35.89722	-1502.8739	-508.78671	94.46769	-1564.7334	-990.19861	644.11481	-1157.03564	-1069.64819	450.08731	-1203.69702	-1188.67053	302.62463	-1194.31653	-1294.58228	138.20015	-1227.87524	-1355.96509	103.86962	-1276.58325	-1169.36499	41.19706	-1248.61633	-888.03552	1774.82764	-1289.23999	-2845.20239	1034.3396	3360.37842
5	0.04	-773.55756	1705.30957	-1382.26404	-786.82123	1676.30542	-1241.87708	-909.3609	1643.8031	-1405.58606	-934.24481	1614.96643	-1267.1853	-978.99976	1495.04871	-1328.60669	-1025.47974	1216.50635	-1316.35364	-839.85999	1428.15845	-1360.85291	-783.64099	1258.04724	-1354.46521	-1024.50696	1317.98413	-1254.04968	-942.93738	1466.01062	-1513.39502	-1032.13074	1281.36475	-1569.96411	-1078.79578	1148.60168	-1559.77832	-1125.61487	1024.18164	-1560.6377	-1127.51538	888.22339	-1512.73816	-1166.21997	906.19244	-1551.04932	-1186.88123	840.72064	-1530.41248	-881.5141	1468.00012	-1157.58801	-870.07971	1284.51184	-1060.27185	-814.21771	1146.948	-1031.85547	-718.09363	1071.27563	-1040.69165	-608.24158	1012.3772	-1089.84766	-631.27582	975.46155	-1053.92651	-562.17249	961.41864	-1065.47815	-801.01483	958.60223	-1468.81396	-806.4444	929.39734	-1212.35986	-1012.02051	1007.81189	-1386.651	-1015.31061	1003.77942	-1273.4928	-800.37341	673.22766	-1562.04297	-754.75745	477.51761	-1540.60645	-742.28442	285.29489	-1560.35083	-657.11597	74.23596	-1553.39502	-679.34387	33.75395	-1504.02881	-501.8829	86.36393	-1564.94897	-975.70813	643.64081	-1160.25256	-1055.90479	449.8298	-1204.79089	-1179.49426	306.03986	-1195.02124	-1289.76868	144.32935	-1227.16467	-1351.5343	112.10563	-1276.02209	-1168.5542	41.17458	-1247.96594	-875.6178	1773.14001	-1294.05664	-2846.07446	1034.38721	3357.32983
6	0.05	-760.92145	1703.60645	-1386.78662	-774.57288	1674.45947	-1246.21338	-896.53796	1641.8927	-1410.38318	-921.87329	1613.11133	-1272.10364	-966.10986	1493.01709	-1334.10913	-1011.08234	1213.86755	-1322.00232	-826.2439	1426.8429	-1365.60352	-768.9198	1257.11389	-1359.14563	-1010.75104	1315.60645	-1259.23071	-928.4093	1464.48621	-1518.66321	-1017.25061	1279.35986	-1574.90613	-1064.31665	1147.27734	-1563.90674	-1112.83154	1023.97626	-1564.86328	-1118.27466	888.18634	-1515.99414	-1155.72583	906.65399	-1555.59033	-1179.28345	842.0506	-1533.30664	-869.80164	1466.72314	-1162.79895	-859.63574	1283.04871	-1065.06287	-803.26941	1145.82214	-1035.79419	-706.28497	1071.20081	-1044.26636	-595.7428	1013.87659	-1092.63489	-618.79889	976.20343	-1057.43372	-549.08807	963.48206	-1068.00696	-783.78992	958.81244	-1473.8877	-789.61871	928.50836	-1217.23242	-995.53882	1005.52863	-1392.55273	-998.83051	1001.64032	-1279.64978	-779.13544	673.3316	-1565.56482	-737.74884	475.66724	-1544.89368	-729.79272	282.37811	-1562.17505	-650.35217	71.1084	-1553.88733	-674.71741	36.92138	-1503.77539	-492.64688	71.29031	-1568.17322	-960.61597	643.18286	-1163.65137	-1041.31653	449.61053	-1205.63452	-1169.3114	309.6796	-1195.771	-1284.11475	150.9973	-1226.57861	-1346.03137	121.17295	-1275.90869	-1167.69446	41.26418	-1247.40979	-863.35114	1771.4176	-1298.87061	-2845.9668	1034.33459	3357.30127
7	0.06	-748.01782	1702.37317	-1390.99597	-762.21173	1673.3252	-1250.61035	-883.48303	1640.25452	-1415.14282	-909.29681	1611.46399	-1277.16943	-953.53284	1490.9635	-1339.60095	-996.70374	1211.73706	-1327.9397	-812.59052	1425.75903	-1370.51733	-754.28357	1256.91028	-1364.0553	-997.73218	1313.75842	-1265.20532	-913.79388	1463.13	-1523.97522	-1002.27246	1277.54492	-1580.27124	-1049.5	1145.84692	-1568.37415	-1099.35974	1023.49939	-1569.45264	-1108.12415	888.11334	-1520.14319	-1144.22095	906.93744	-1560.66113	-1170.51526	843.2655	-1536.97559	-858.34229	1465.63806	-1168.0238	-848.00586	1281.94324	-1069.7771	-792.88074	1144.98657	-1040.04578	-694.99542	1070.6875	-1047.66809	-583.7373	1014.59937	-1095.49817	-606.87018	976.47192	-1060.87915	-537.18231	964.56476	-1070.5531	-767.09741	959.38898	-1479.03406	-772.32452	927.77222	-1222.42102	-978.62	1003.82568	-1398.11621	-982.58508	999.49475	-1285.646	-759.38495	674.08655	-1568.11414	-722.60358	475.00104	-1549.88721	-716.67651	280.75256	-1561.8844	-643.49139	71.6941	-1558.24768	-669.59937	39.77478	-1506.43286	-484.7168	55.66685	-1570.44006	-945.01312	642.70703	-1167.08691	-1025.56702	449.43372	-1206.3385	-1158.09058	313.38544	-1196.63867	-1277.33069	158.17915	-1226.18701	-1339.09351	131.03828	-1276.08423	-1166.54797	41.37617	-1246.98779	-851.13757	1769.90332	-1303.59753	-2845.8606	1034.35718	3357.60498
